<svg width="375" height="156" viewBox="0 0 375 156" fill="none" xmlns="http://www.w3.org/2000/svg">
<path id="Combined Shape Copy" fill-rule="evenodd" clip-rule="evenodd" d="M-531.409 559.265C-479.976 610.692 -396.593 610.692 -345.159 559.265L51.4991 162.662C102.943 111.226 102.943 27.8229 51.4991 -23.6136C0.0655518 -75.04 -83.3172 -75.04 -134.751 -23.6136L-531.409 372.989C-582.853 424.426 -582.853 507.829 -531.409 559.265ZM-86.7173 487.441C-35.2838 538.867 48.099 538.867 99.5326 487.441L496.191 90.8383C547.635 39.4017 547.635 -44.0012 496.191 -95.4379C444.758 -146.864 361.375 -146.864 309.941 -95.4379L-86.7174 301.165C-138.161 352.602 -138.161 436.004 -86.7173 487.441Z" fill="#63BABA"/>
</svg>
